<?xml version="1.0" encoding="UTF-8" standalone="no"?>
<!-- Created with Inkscape (http://www.inkscape.org/) -->

<svg
   version="1.1"
   id="svg1"
   width="352.34171"
   height="348.29132"
   viewBox="0 0 352.3417 348.29133"
   xmlns="http://www.w3.org/2000/svg"
   xmlns:svg="http://www.w3.org/2000/svg">
  <defs
     id="defs1" />
  <g
     id="layer-oc1"
     transform="translate(-32.874416,-176.85119)">
    <path
       id="path79"
       d="m 327.47547,524.99316 -2.356,-5.36667 c -2.17066,-4.63333 -4.24533,-9.25333 -6.212,-13.868 -35.77866,9.888 -73.896,15.74534 -109.20399,15.74534 -35.304,0 -74.61467,-5.86 -110.511202,-15.748 -1.967066,4.61066 -4.041066,9.224 -6.212266,13.85733 l -2.591067,5.52933 -6.479333,-2.35066 C 78.875479,521.05449 53.181346,512.06649 39.726013,506.21849 l -6.841066,-2.97333 3.719866,-6.46533 c 3.2988,-5.73467 6.401333,-11.49467 9.307733,-17.228 12.964133,-25.76 21.823733,-51.49067 26.553733,-77.23867 0.14,-0.764 0.2804,-1.528 0.411733,-2.316 l 0.0041,-0.024 c 3.478,-19.972 4.452,-39.95733 2.946533,-59.94266 v -0.001 c -0.973867,-12.98533 -3.0004,-25.98266 -6.098667,-39.00133 l -0.0076,-0.0333 c -0.119866,-0.528 -0.252533,-1.04267 -0.414533,-1.676 l -0.02573,-0.11867 c -0.0476,-0.21867 -0.105734,-0.448 -0.173467,-0.70667 l -0.01013,-0.0413 c -6.132,-24.776 -16.1112,-49.56 -29.881733,-74.33333 l -0.0061,-0.012 c -0.846133,-1.536 -1.7184,-3.07067 -2.6036,-4.608 l -3.732667,-6.476 6.8608,-2.97067 c 0.9108,-0.39333 1.808267,-0.77466 2.718933,-1.15466 2.151067,-0.92 4.315467,-1.81334 6.454134,-2.68 h 0.0011 c 7.6152,-3.08134 15.244,-5.89067 22.872666,-8.416 l 4.792667,-1.58534 2.826133,4.18267 c 3.0204,4.47067 6.5652,8.476 10.5212,11.93867 0.432533,0.36266 0.864267,0.74666 1.332533,1.124 l 0.03533,0.0293 c 9.862926,8.17067 22.183326,13.05333 35.560126,13.05333 0.53213,0 1.06413,-0.0107 1.64147,-0.036 l 0.0453,-10e-4 c 3.27867,-0.0947 6.48667,-0.48667 9.59467,-1.12933 21.264,-4.51467 38.34266,-21.452 44.83066,-43.44 l 1.36267,-4.61867 4.81333,-0.15733 c 5.756,-0.18934 14.18267,-0.31067 19.91201,-0.31067 5.72934,0 14.15467,0.12133 19.912,0.31067 l 4.812,0.15733 1.36267,4.61867 c 6.48933,21.99066 23.572,38.92933 44.84933,43.444 3.09733,0.63866 6.30133,1.03066 9.62267,1.12666 l 0.044,0.003 c 0.53332,0.0227 1.06533,0.0333 1.59733,0.0333 13.37599,0 25.69733,-4.88266 35.59467,-13.08266 l 0.036,-0.0293 c 0.43066,-0.34666 0.86133,-0.72933 1.29066,-1.08933 3.964,-3.46933 7.508,-7.47467 10.528,-11.944 l 2.82534,-4.18267 4.79333,1.58534 c 7.628,2.52533 15.25733,5.33466 22.87866,8.41866 l 0.005,0.003 c 0.804,0.32667 1.608,0.65333 2.41066,0.99333 2.244,0.92 4.51334,1.86534 6.756,2.83867 l 6.844,2.968 -3.71466,6.468 c -2.27734,3.96533 -4.464,7.94533 -6.54667,11.91467 l -0.003,0.005 c -11.76266,22.33867 -20.41733,44.70133 -25.95733,67.08266 l -0.0107,0.04 c -0.0573,0.21867 -0.116,0.448 -0.18934,0.78534 l -0.0293,0.11733 c -0.132,0.516 -0.26533,1.03067 -0.392,1.592 l -0.008,0.0333 c -3.09067,12.98534 -5.11733,25.98267 -6.09067,38.96934 v 10e-4 c -1.50533,19.984 -0.532,39.96933 2.95067,59.96533 l 0.004,0.024 c 0.12667,0.764 0.268,1.528 0.408,2.292 4.72933,25.748 13.58933,51.47867 26.55333,77.23867 2.90667,5.73333 6.00933,11.49333 9.308,17.228 l 3.72133,6.46666 -6.84533,2.972 c -15.02133,6.52267 -30.084,12.272 -45.2,16.99467 z M 294.01014,308.3985 h 39.11733 c 0.67867,-3.45867 1.42934,-6.916 2.25067,-10.37067 0.13867,-0.60533 0.288,-1.19733 0.43733,-1.78 0.076,-0.344 0.164,-0.696 0.252,-1.03333 5.77734,-23.328 14.79867,-46.68533 27.08134,-70.01333 1.00933,-1.924 2.04266,-3.85067 3.09866,-5.77734 -0.688,-0.28933 -1.376,-0.56933 -2.064,-0.84933 -5.81066,-2.35067 -11.63066,-4.53867 -17.45333,-6.556 -2.96533,3.80667 -6.264,7.28933 -9.9,10.464 l -0.0587,0.0493 c -0.496,0.41334 -0.992,0.852 -1.48266,1.24934 -12.21334,10.108 -27.48134,16.096 -44.03867,16.096 -0.70667,0 -1.412,-0.0147 -2.112,-0.044 -4.06267,-0.12 -8.03733,-0.60534 -11.89467,-1.404 l -0.0147,-0.004 c -24.40534,-5.16934 -44.484,-23.56534 -53.35333,-48.064 -4.95067,-0.11067 -10.628,-0.17734 -14.82534,-0.17734 -4.19733,0 -9.87466,0.0667 -14.82533,0.17734 -8.86933,24.49866 -28.94933,42.89466 -53.368,48.068 l -0.016,0.003 c -3.84,0.79467 -7.812,1.28134 -11.856,1.4 -0.712,0.0307 -1.42347,0.0453 -2.1348,0.0453 -16.55507,0 -31.822131,-5.98667 -44.030798,-16.09067 -0.496533,-0.40133 -0.994,-0.84133 -1.549466,-1.304 l -0.05773,-0.0507 c -3.577866,-3.124 -6.876666,-6.60666 -9.842533,-10.41333 -5.823066,2.01733 -11.644533,4.20533 -17.457866,6.55867 -0.683867,0.276 -1.370533,0.556 -2.059733,0.84 13.857999,25.25066 23.923332,50.52933 30.174132,75.77066 0.09053,0.348 0.180267,0.70933 0.256667,1.05067 0.149333,0.584 0.297333,1.16933 0.4336,1.76666 0.824,3.464 1.576,6.928 2.256266,10.39334 h 56.897591 c -1.432,2.10133 -2.76933,4.276 -4.00266,6.52133 0,0 -16.47494,-2.80133 -16.47494,-2.80133 l -1.05146,2.368 c -1.5868,3.572 -2.96534,7.26933 -4.124,11.07866 l -0.75254,2.47334 14.28027,8.68933 c -0.29867,1.352 -0.56533,2.71733 -0.79067,4.1 -0.224,1.384 -0.404,2.764 -0.54933,4.14 0,0 -16.29547,3.72 -16.29547,3.72 l -0.07,2.584 c -0.10773,3.98 0.0291,7.924 0.40347,11.81467 l 0.248,2.57733 16.51267,2.56267 c 0.50266,2.756 1.14933,5.47066 1.92933,8.136 0,0 -13.63107,9.67066 -13.63107,9.67066 l 0.93107,2.41734 c 1.42093,3.68933 3.06413,7.27866 4.916,10.752 l 1.02093,1.91466 H 86.214412 c -0.06293,0.37067 -0.126533,0.74134 -0.191067,1.112 -0.138533,0.82933 -0.2904,1.66 -0.4428,2.492 h -2.66e-4 c -4.949467,26.94267 -14.1952,53.87733 -27.766266,80.84133 l -0.0043,0.008 c -1.897467,3.744 -3.875733,7.49867 -5.934666,11.25067 10.518533,4.19867 24.030399,9.03467 31.545065,11.67867 2.007067,-4.43467 3.917867,-8.85734 5.722934,-13.28534 l 2.2664,-5.56133 5.766799,1.67467 c 36.215205,10.52 76.521865,16.84266 112.527205,16.84266 35.99866,0 75.01199,-6.324 111.21999,-16.84266 l 5.76667,-1.67467 2.26667,5.56133 c 1.83066,4.492 3.77066,8.98267 5.808,13.484 10.524,-3.46933 21.02,-7.43866 31.496,-11.81333 -2.072,-3.77333 -4.06267,-7.54933 -5.97467,-11.32267 l -0.004,-0.008 c -13.56667,-26.956 -22.81333,-53.89066 -27.76267,-80.83333 v -0.001 c -0.152,-0.828 -0.30266,-1.65467 -0.44133,-2.48134 -0.0653,-0.37466 -0.12933,-0.74799 -0.192,-1.12133 h -55.82133 l -0.99734,-1.36266 c 1.584,-2.28134 3.05734,-4.65067 4.40667,-7.10667 0,0 16.47467,2.8 16.47467,2.8 l 1.052,-2.36667 c 1.58666,-3.572 2.96533,-7.27066 4.12266,-11.08133 l 0.75067,-2.47333 -14.27867,-8.68534 c 0.29867,-1.352 0.56667,-2.71733 0.792,-4.10133 0.224,-1.384 0.40267,-2.764 0.548,-4.14 0,0 16.29467,-3.71867 16.29467,-3.71867 l 0.0707,-2.584 c 0.10933,-3.98 -0.0293,-7.92533 -0.40134,-11.81466 l -0.248,-2.57867 -16.51333,-2.56267 c -0.50267,-2.756 -1.14933,-5.47066 -1.92933,-8.136 0,0 13.63066,-9.67066 13.63066,-9.67066 l -0.93066,-2.41734 c -1.416,-3.67733 -3.05467,-7.25733 -4.89867,-10.71866 z m -16.84667,122.44799 -1.588,1.392 -0.46933,-2.17333 1.768,-1.55067 z m -114.28799,24.868 -2.056,-0.96 2.77466,-5.948 -2.392,-1.116 0.868,-1.86 6.84,3.192 -0.868,1.85867 -2.392,-1.116 z m 50.284,9.88267 -2.268,0.0587 -0.17067,-6.56134 -2.64,0.068 -0.0533,-2.05066 7.54533,-0.19734 0.0533,2.05067 -2.63866,0.0693 z m 72.61733,-179.98666 -11.22134,-10.836 2.796,-2.89734 14.064,-1.396 -6.65733,-6.42799 3.02,-3.12667 11.10667,10.72533 -2.852,2.95333 -14.04667,1.30267 6.81067,6.576 z m -136.256,-15.09067 -6.12,4.27733 -10.96933,-15.69199 6.12,-4.27867 c 4.96133,-3.468 10.31733,-2.46133 13.51066,2.10667 3.192,4.568 2.31067,10.19466 -2.54133,13.58666 z m -10.468,-10.74 5.98933,8.568 1.748,-1.22266 c 2.732,-1.90934 3.09334,-4.27734 1.032,-7.228 -1.94133,-2.776 -4.33333,-3.21867 -7.02133,-1.34 z m 8.364,141.33733 c -1.82667,-2.364 -3.516,-4.83333 -5.06,-7.39333 l -16.06667,3.91067 c -1.788,-3.35334 -3.37466,-6.81867 -4.74666,-10.38134 l 13.48666,-9.568 c -1.30666,-4.01333 -2.29866,-8.14933 -2.93466,-12.38266 l -16.33467,-2.53467 c -0.36133,-3.756 -0.49333,-7.56267 -0.38933,-11.40533 l 16.13066,-3.68134 c 0.168,-2.09866 0.4,-4.204 0.74267,-6.31733 0.344,-2.11467 0.792,-4.184 1.296,-6.228 l -14.13467,-8.6 c 1.11867,-3.67733 2.44934,-7.24667 3.98134,-10.696 l 16.29733,2.77067 c 1.828,-3.58934 3.92667,-6.996 6.26,-10.212 0.14667,-0.20267 0.29467,-0.404 0.444,-0.60534 l -9.76267,-13.34666 c 2.42934,-2.944 5.03334,-5.72934 7.79067,-8.344 l 14,8.79866 c 3.23067,-2.75466 6.68,-5.23866 10.31467,-7.43066 l -3.91067,-16.06667 c 3.352,-1.788 6.81867,-3.37466 10.38133,-4.74666 l 9.568,13.48666 c 4.01334,-1.30667 8.14934,-2.29867 12.38267,-2.93467 l 2.53467,-16.33466 c 3.75466,-0.36133 7.56266,-0.49333 11.40533,-0.38933 l 3.68133,16.13066 c 2.09734,0.168 4.20267,0.39867 6.31734,0.74267 2.11466,0.34266 4.184,0.792 6.228,1.296 l 8.59866,-14.13467 c 3.67867,1.11867 7.248,2.44934 10.696,3.98134 l -2.76933,16.29733 c 3.81466,1.94266 7.424,4.19333 10.81733,6.704 l 13.34667,-9.76267 c 2.944,2.42933 5.72933,5.03333 8.34266,7.79067 l -8.79733,14 c 1.34,1.572 2.61733,3.196 3.82667,4.868 1.276,1.764 2.47866,3.58 3.604,5.44666 l 16.06666,-3.91066 c 1.78667,3.352 3.37467,6.81866 4.74667,10.38133 l -13.48667,9.568 c 1.30667,4.01333 2.29867,8.14933 2.93467,12.38267 l 16.33467,2.53466 c 0.36,3.75467 0.49333,7.56267 0.388,11.40534 l -16.12934,3.68133 c -0.16933,2.09733 -0.39866,4.20267 -0.74266,6.31733 -0.344,2.11467 -0.792,4.184 -1.29734,6.228 l 14.13467,8.59867 c -1.11733,3.67867 -2.448,7.248 -3.98,10.696 l -16.29733,-2.76933 c -1.944,3.81466 -4.19467,7.424 -6.704,10.81733 l 9.76266,13.34666 c -2.42933,2.944 -5.03333,5.72934 -7.79066,8.344 l -14.00134,-8.79866 c -3.22933,2.75333 -6.67866,5.23866 -10.31333,7.43066 l 3.91067,16.06667 c -3.35334,1.788 -6.81867,3.37467 -10.38134,4.74667 l -9.56799,-13.48667 c -4.01334,1.30667 -8.14934,2.29867 -12.38267,2.93333 l -2.53467,16.336 c -3.756,0.36134 -7.56266,0.49334 -11.40533,0.388 l -3.68133,-16.12933 c -2.09867,-0.16933 -4.204,-0.39867 -6.31734,-0.74267 -2.11466,-0.344 -4.184,-0.792 -6.228,-1.29733 l -8.6,14.13467 c -3.67733,-1.11734 -7.24666,-2.448 -10.696,-3.98 l 2.77067,-16.29734 c -3.81467,-1.944 -7.424,-4.19466 -10.81733,-6.704 l -13.34667,9.76267 c -2.944,-2.42933 -5.72933,-5.03333 -8.344,-7.79067 l 8.79867,-14.00133 c -0.81467,-0.95467 -1.604,-1.928 -2.37067,-2.92 z m 116.752,-60.532 c -5.95467,-24.91866 -28.38667,-43.468 -55.11867,-43.468 -25.53466,0 -47.148,16.92667 -54.22133,40.16134 2.31867,-2.008 5.29467,-3.87467 9.11867,-5.35867 1.20133,-0.46667 1.99466,-1.552 2.388,-2.77867 0.40133,-1.252 1.11066,-2.348 2.28266,-3.148 1.03067,-0.70266 2.46667,-1.19466 4.516,-1.20533 0.10267,-0.0307 0.97734,-0.29733 1.612,-0.556 1.5,-0.61067 3.28267,-1.45333 4.34134,-1.85733 1.04533,-0.39734 1.84266,-0.35867 2.12266,-0.28 h 0.001 c 0.64533,0.18266 1.39466,0.74666 1.976,1.70533 0.33733,0.55467 0.66,1.27067 0.96133,1.932 0.12933,0.284 0.32267,0.65867 0.41467,0.83733 0.064,0.04 0.12533,0.08 0.18266,0.11867 0.18534,-0.0573 0.46534,-0.15067 0.73867,-0.268 1.45867,-0.62133 2.91333,-1.504 4.95867,-2.01067 0.55733,-0.13733 0.90133,-0.64933 0.952,-1.22133 0.37066,-4.13867 3.936,-9.55333 6.248,-13.18933 0.83066,-1.30534 2.88133,-2.20934 5.02533,-2.21467 2.164,-0.005 4.21733,0.908 5.03467,2.24667 1.58533,2.6 2.44133,7.90933 3.544,10.54933 0.19066,0.456 0.71733,0.50933 1.212,0.492 0.89333,-0.0293 1.64666,-0.308 2.88933,0.0973 l -0.0493,-0.0147 c 0.26266,0.0813 1.72133,0.55066 2.652,1.336 l 0.001,10e-4 c 0.356,0.30133 0.83333,1.01467 1.12133,2.084 0.54934,2.05333 0.86534,6.06267 0.91734,6.76933 0.009,0.0493 0.02,0.11467 0.0347,0.19467 0.0693,-0.12667 0.13867,-0.25467 0.208,-0.384 1.00534,-1.88933 1.868,-4.1 2.37867,-5.47467 0.0147,-0.0707 0.0787,-0.38266 0.08,-0.384 0.0453,-0.38133 0.20533,-1.468 0.64533,-2.44 0.536,-1.18133 1.46534,-2.128 2.70534,-2.39733 1.02533,-0.22267 1.552,-0.10667 1.97866,0.028 0.16,0.0507 0.252,0.19733 0.63734,0.19733 3.34133,0 5.212,-0.084 5.79466,-0.11466 0.27334,-0.236 0.74534,-0.58 1.428,-0.868 0.60933,-0.256 2.40667,-0.42267 3.70533,-0.46534 h 0.001 c 0.416,-0.0133 0.832,0.008 1.24133,0.0733 2,0.316 2.95733,1.28666 5.064,2.944 0.28933,0.228 0.716,0.69066 1.168,1.22533 0.35733,0.42267 1.016,1.12267 1.148,1.26267 0.79733,0.364 1.96933,1.27066 3.18133,2.45066 2.528,2.46134 5.48134,6.07867 5.48134,6.07867 l 0.0547,0.068 0.0507,0.0733 c 0.164,0.24267 3.79867,3.84134 7.19067,7.172 z m -111.244,5.34 c -0.35733,2.568 -0.54133,5.192 -0.54133,7.85867 0,31.27467 25.39066,56.66666 56.66666,56.66666 31.27467,0 56.66667,-25.39199 56.66667,-56.66666 0,-2.18267 -0.124,-4.33733 -0.364,-6.456 -3.66667,-3.58667 -11.25067,-11.11867 -11.67334,-11.652 l 0.0933,0.124 c 0,0 -2.78534,-3.41733 -5.172,-5.74 -0.80267,-0.78267 -1.50134,-1.46667 -1.992,-1.65467 h -0.001 c -0.40666,-0.156 -0.95866,-0.53333 -1.5,-1.09333 -0.61466,-0.632 -1.29866,-1.608 -1.68666,-1.91333 -0.696,-0.54667 -1.22934,-1.02 -1.72667,-1.40667 -0.46667,-0.364 -0.868,-0.632 -1.49067,-0.73067 v 0 c -0.16,-0.0253 -0.32266,-0.0307 -0.48533,-0.0267 -0.74133,0.0253 -2.17733,0.16533 -2.34933,0.18266 -0.40134,0.18267 -0.43867,0.32934 -0.54267,0.41867 -0.084,0.072 -0.172,0.14 -0.27067,0.204 -0.27866,0.18533 -0.66,0.38667 -1.43599,0.49467 -0.78934,0.10933 -2.46934,0.15066 -6.46,0.15066 -0.424,0 -0.744,-0.0427 -1.00267,-0.0987 -0.20133,-0.0427 -0.43067,-0.12267 -0.60533,-0.188 -0.0587,0.11333 -0.13734,0.27066 -0.17334,0.37466 -0.172,0.51067 -0.21466,0.992 -0.21466,0.992 l -0.007,0.0933 -0.0173,0.0933 c 0,0 -0.16267,0.816 -0.256,1.06667 -0.96934,2.61333 -3.22667,7.97733 -5.356,9.776 -0.60667,0.51066 -1.33334,0.668 -2.09067,0.49466 -0.89733,-0.204 -1.884,-1.13466 -2.17067,-2.028 -0.31866,-0.992 -0.73333,-3.33333 -0.73333,-3.33333 l -0.0173,-0.10267 -0.91334,-6.46533 c -0.41866,-0.244 -0.912,-0.36267 -0.94933,-0.37333 l -0.0467,-0.0147 c -0.27733,-0.0907 -0.47866,-0.024 -0.672,0.007 -0.27866,0.044 -0.55333,0.0813 -0.84,0.0907 -2.20666,0.0747 -4.18533,-0.912 -5.03733,-2.94666 -1.03733,-2.484 -1.76,-7.496 -3.244,-9.96934 -0.0413,-0.024 -0.21867,-0.12933 -0.33467,-0.17066 -0.38533,-0.14 -0.84266,-0.2 -1.3,-0.19867 -0.46133,10e-4 -0.924,0.064 -1.316,0.20667 -0.13466,0.048 -0.28266,0.0573 -0.344,0.15466 -2.01333,3.168 -5.31466,7.792 -5.63866,11.4 -0.204,2.28667 -1.74534,4.19467 -3.97334,4.74667 v 0 c -1.80266,0.44667 -3.068,1.26 -4.352,1.808 -1.36533,0.58267 -2.17333,0.676 -2.7,0.64533 -0.62,-0.036 -1.056,-0.21866 -1.444,-0.46266 -0.128,-0.0813 -0.36933,-0.26134 -0.42666,-0.30534 -0.32134,-0.14933 -0.68,-0.40933 -1.00534,-0.828 -0.29066,-0.372 -0.61333,-0.98266 -0.928,-1.668 -0.14533,-0.31866 -0.36533,-0.75333 -0.55066,-1.11466 -1.108,0.47733 -3.01867,1.29333 -4.23067,1.764 -1.10133,0.42666 -2.052,0.65733 -2.57333,0.65733 -1.86,0 -2.73334,0.584 -3.05067,1.576 -0.764,2.37867 -2.42133,4.38 -4.75067,5.28533 -6.84266,2.656 -10.508,6.732 -12.46933,10.276 z m 68.38133,60.63067 -0.82133,-1.46667 -2.96933,0.57333 -0.22667,1.66934 -2.25067,0.436 1.49867,-9.06533 2.43867,-0.472 4.73466,7.85999 z m -3.14133,-5.62667 -0.388,2.86133 1.792,-0.34533 z m 27.188,-19.03333 c 1.192,-1.536 3.01466,-1.808 4.152,-0.92533 0.78666,0.61066 1.16,1.20533 1.41866,2.43866 l 0.77334,3.7 -1.428,1.83867 -0.75334,-3.472 -0.0813,0.10533 c -1.05867,1.364 -2.65467,1.6 -3.84933,0.672 -1.24134,-0.964 -1.43867,-2.804 -0.232,-4.35733 z m 1.35066,1.07867 c -0.35333,0.45466 -0.44533,1.08133 0.14267,1.53866 0.616,0.47734 1.19067,0.22534 1.544,-0.22933 0.35333,-0.45467 0.46267,-1.084 -0.15333,-1.56267 -0.588,-0.456 -1.18,-0.20266 -1.53334,0.25334 z m -56.72533,21.48133 -3.156,-1.15334 2.95867,-8.09199 3.15467,1.15333 c 2.55866,0.936 3.56933,3.17067 2.708,5.52533 -0.86134,2.356 -3.164,3.48133 -5.66534,2.56667 z m 1.26134,-6.62933 -1.616,4.41733 0.90133,0.32933 c 1.40933,0.516 2.376,0.0387 2.932,-1.48266 0.524,-1.432 0.0707,-2.428 -1.316,-2.93467 z m -10.09734,-7.90534 -3.496,3.828 c -1.408,1.54134 -3.40133,1.78534 -5.19066,0.15067 -1.808,-1.65067 -1.73734,-3.64933 -0.32934,-5.192 l 3.49467,-3.828 1.67467,1.52933 -3.52,3.85467 c -0.60667,0.66533 -0.804,1.36133 0.0467,2.13867 0.84267,0.768 1.51867,0.508 2.12534,-0.156 l 3.52,-3.85467 z m 54.13334,1.55467 c 1.59466,-1.112 3.41466,-0.83067 4.23866,0.35067 0.56933,0.816 0.75067,1.49466 0.62933,2.74933 l -0.36,3.76267 -1.90933,1.332 0.312,-3.53867 -0.108,0.0747 c -1.41733,0.98933 -3.01066,0.73866 -3.876,-0.50134 -0.89866,-1.28933 -0.54133,-3.104 1.07334,-4.22933 z m 0.96933,1.43067 c -0.47334,0.32933 -0.74667,0.90133 -0.32134,1.512 0.44534,0.63866 1.07067,0.56933 1.54267,0.24 0.472,-0.32934 0.764,-0.89867 0.31733,-1.53734 -0.42533,-0.61066 -1.06666,-0.544 -1.53866,-0.21466 z m 10.184,0.18133 c -1.332,1.264 -3.11734,1.40533 -4.236,0.316 l 1.50533,-1.43067 c 0.46667,0.33467 0.988,0.22134 1.44933,-0.21733 0.62667,-0.59467 0.40267,-1.144 0.10534,-1.45733 -0.30667,-0.32134 -0.88534,-0.548 -1.53867,0.072 -0.41733,0.396 -0.57333,0.85866 -0.34933,1.35733 l -1.64,0.764 -2.61867,-3.80267 3.61867,-3.43733 1.27333,1.34 -2.532,2.404 0.59733,0.87333 c 0.14534,-0.38666 0.392,-0.73733 0.69734,-1.02666 1.496,-1.42134 3.10666,-0.99734 4.048,-0.005 0.90933,0.956 1.212,2.73867 -0.38,4.25067 z m -44.892,14.344 -0.24267,-1.66267 -2.97866,-0.52533 -0.80934,1.47733 -2.25733,-0.39733 4.64133,-7.93067 2.44534,0.43067 1.612,9.03333 z m -0.92267,-6.37733 -1.38533,2.53466 1.796,0.316 z m -18.292,-0.16934 -0.128,-6.376 -2.80133,4.588 -1.772,-1.08133 4.48933,-7.35333 2.07867,1.26933 0.12,5.90667 2.59467,-4.25067 1.772,1.08133 -4.48934,7.35467 z m 52.93467,0.29734 -1.84667,0.94666 -2.88266,-5.62933 -1.33467,0.684 -0.816,-1.592 3.184,-1.62933 z m -69.25867,-14.592 -1.39866,-1.78534 6.784,-5.312 3.61733,4.62 -1.54933,1.21334 -2.22,-2.83467 -1.256,0.984 1.85733,2.372 -1.54933,1.21333 -1.85734,-2.372 z m 43.45067,21.32533 -3.35867,0.0573 -0.148,-8.61466 3.36,-0.0573 c 2.724,-0.0467 4.46934,1.676 4.512,4.18267 0.0427,2.508 -1.70133,4.38666 -4.36533,4.432 z m -1.20533,-6.64133 0.08,4.70399 0.96,-0.016 c 1.5,-0.0267 2.23066,-0.81866 2.20266,-2.43866 -0.0253,-1.524 -0.80666,-2.29067 -2.28266,-2.26533 z m -13.52934,-40.084 v 5.248 h -32.512 v -22.976 h 32.064 v 5.248 h -19.968 v 3.296 h 18.112 v 5.248 h -18.112 v 3.936 z m 29.568,5.248 h -12.096 v -17.504 h -14.08 v -5.472 h 40.256 v 5.472 h -14.08 z m 19.52,0 h 12.096 v -22.976 h -12.096 z m -105.66,-92.688 3.10134,3.08266 -9.54934,9.608 -13.57946,-13.49866 9.4188,-9.47467 3.102,3.08267 -5.866,5.9 1.948,1.93733 5.32066,-5.352 3.10134,3.08267 -5.32,5.352 2.32533,2.312 z m 80.61734,-22.16933 -15.59734,-0.27734 0.072,-4.02666 9.33734,-10.608 -9.252,-0.16534 0.0773,-4.34533 15.43867,0.27467 -0.0733,4.10666 -9.38933,10.52667 9.46533,0.16933 z m -32.73734,2.86 c -5.37733,1.24266 -10.556,-1.85734 -11.864,-7.52267 -1.30933,-5.664 1.99467,-10.66933 7.37334,-11.912 5.404,-1.24933 10.56933,1.8 11.87866,7.464 1.30934,5.664 -1.984,10.72133 -7.388,11.97067 z m -1.01466,-4.39067 c 2.936,-0.67867 4.01466,-3.47333 3.336,-6.40933 -0.67867,-2.936 -2.86134,-4.92267 -5.79734,-4.244 -2.936,0.67866 -4.02666,3.42133 -3.348,6.35733 0.67867,2.936 2.87334,4.97333 5.80934,4.296 z m 84.07066,20.72266 0.97867,-3.60533 -5.604,-3.708 -2.95867,2.29467 -4.248,-2.81067 16.48133,-12.052 4.604,3.04534 -4.71733,19.83733 z m 3.768,-13.81466 -5.06667,3.93733 3.38,2.23734 z m -26.90533,1.27067 -4.64,-1.968 7.47733,-17.62667 7.21733,3.06133 c 4.76267,2.02 6.58134,5.312 4.988,9.068 -0.95733,2.25867 -3.09866,3.552 -5.908,3.548 l 1.52,8.436 -5.524,-2.34266 -1.12,-7.39734 -1.52133,-0.64666 z m 5.852,-13.79734 -1.73867,4.1 2.38133,1.01067 c 2.06267,0.87467 3.29067,0.64267 3.884,-0.75733 0.59334,-1.39867 -0.0827,-2.468 -2.14533,-3.34267 z m -17.84,9.952 -0.43867,-3.70933 -6.58266,-1.34933 -1.888,3.23333 -4.98934,-1.02133 10.792,-17.33334 5.40667,1.10667 3.02933,20.16533 z m -1.66,-14.22266 -3.232,5.544 3.97067,0.81466 z m -67.69733,21.352 -4.60667,2.04533 -7.772,-17.49867 7.16533,-3.18133 c 4.728,-2.1 8.37467,-1.18133 10.03067,2.54667 0.996,2.24266 0.47867,4.68933 -1.44133,6.73866 l 7.2,4.65067 -5.48267,2.436 -6.16933,-4.23333 -1.512,0.67066 z m -6.084,-13.69734 1.808,4.07067 2.364,-1.05067 c 2.04666,-0.90933 2.716,-1.964 2.09866,-3.35333 -0.616,-1.38933 -1.86,-1.62533 -3.90666,-0.716 z m 120.80266,247.712 -2.228,0.42133 -1.60133,-8.46533 3.46666,-0.656 c 2.28667,-0.43334 3.79067,0.34533 4.13067,2.14933 0.20533,1.08533 -0.27333,2.104 -1.32533,2.804 l 2.67466,2.77867 -2.65333,0.50133 -2.26533,-2.48933 -0.732,0.13733 z m -1.25333,-6.62667 0.372,1.96933 1.144,-0.216 c 0.99066,-0.188 1.39333,-0.58133 1.26533,-1.25333 -0.12667,-0.672 -0.64667,-0.904 -1.63733,-0.716 z m -123.068,0.52 -0.836,5.33467 c -0.29867,1.896 -1.66533,3.176 -3.95333,2.81733 -2.276,-0.35733 -3.19734,-1.996 -2.9,-3.89333 l 2.25333,0.35333 c -0.12,0.75867 -0.0467,1.37733 0.96133,1.536 0.996,0.156 1.26667,-0.408 1.38,-1.132 l 0.84267,-5.36933 z m -32.8676,-0.236 c -0.40347,1.72933 -2.0468,2.54133 -4.23213,2.032 -2.18534,-0.51067 -3.31787,-1.99467 -3.03627,-3.888 l 2.23213,0.52133 c -0.16213,0.8 0.24654,1.42534 1.15814,1.63734 0.7596,0.17733 1.33026,0.003 1.45293,-0.524 0.0845,-0.36134 -0.21507,-0.71467 -0.68413,-0.92267 l -1.46267,-0.64933 c -1.284,-0.57067 -1.98947,-1.56134 -1.6732,-2.916 0.36533,-1.56667 2.00053,-2.344 3.882,-1.904 1.9984,0.46533 3.16853,1.94666 2.87453,3.788 l -2.232,-0.52134 c 0.1188,-0.77333 -0.28093,-1.384 -1.0172,-1.556 -0.6544,-0.152 -1.13346,0.10534 -1.23986,0.56134 -0.0872,0.37466 0.23493,0.684 0.66,0.86933 l 1.55066,0.69333 c 1.42774,0.64134 2.05067,1.56267 1.76707,2.77867 z m 24.26627,-42.70133 0.48666,-1.608 -2.47333,-1.74 -1.36,0.99466 -1.87467,-1.31866 7.568,-5.21067 2.032,1.42933 -2.376,8.86267 z m 1.87333,-6.16534 -2.33067,1.70667 1.492,1.04933 z m 154.94,47.20534 c 0.408,1.72933 -0.704,3.18666 -2.888,3.70133 -2.18534,0.51333 -3.85867,-0.31333 -4.448,-2.13467 l 2.232,-0.52533 c 0.20933,0.78933 0.85333,1.168 1.764,0.95333 0.76,-0.17866 1.19333,-0.58933 1.06933,-1.11466 -0.0853,-0.36267 -0.51067,-0.54534 -1.02267,-0.524 l -1.59866,0.068 c -1.404,0.06 -2.476,-0.51334 -2.79467,-1.86934 -0.36933,-1.56533 0.75067,-2.98666 2.632,-3.42933 1.99733,-0.47067 3.704,0.336 4.25733,2.116 l -2.23066,0.52533 c -0.23734,-0.74533 -0.86667,-1.11466 -1.60267,-0.94133 -0.65333,0.15333 -0.968,0.59733 -0.86133,1.05333 0.088,0.37334 0.51466,0.50667 0.97733,0.484 l 1.69733,-0.0667 c 1.564,-0.06 2.532,0.48933 2.81734,1.704 z m -164.26933,7.952 -2.384,-5.916 -0.98934,5.284 -2.04,-0.38134 1.584,-8.46933 2.39467,0.448 2.20933,5.48 0.91734,-4.89467 2.04,0.38267 -1.58534,8.468 z m 61.43466,-33.38667 -0.28933,3.22667 -2.25867,-0.20267 0.28934,-3.22667 -2.52134,-5.62266 2.43867,0.21733 1.47467,3.44533 2.09866,-3.12533 2.27067,0.204 z m -6.328,39.84 -3.35733,-0.152 0.38933,-8.608 3.35734,0.152 c 2.72,0.12267 4.356,1.95067 4.24266,4.456 -0.11333,2.50533 -1.97066,4.272 -4.632,4.152 z m -0.79066,-6.70267 -0.212,4.69867 0.95866,0.044 c 1.49867,0.0667 2.27734,-0.67867 2.35067,-2.29733 0.068,-1.52134 -0.664,-2.336 -2.13867,-2.40267 z m -23.79467,-36.77466 -2.112,-0.82534 3.13467,-8.02533 2.112,0.82533 z m 106.75333,-14.97867 c -2.00667,1.504 -4.69067,1.20667 -6.30267,-0.944 -1.52666,-2.036 -1.16533,-4.676 0.86,-6.19467 1.728,-1.296 3.75334,-1.25466 5.39334,-0.068 l -2.15067,1.612 c -0.56933,-0.39866 -1.37333,-0.41066 -2.07333,0.11467 -0.89334,0.66933 -1.14534,1.83333 -0.13067,3.188 0.864,1.152 2.1,1.62 3.348,0.684 0.78667,-0.59067 0.94533,-1.39867 0.716,-2.12667 l -1.66133,1.24534 -1.07334,-1.43067 3.60134,-2.69867 c 1.84933,2.16667 1.75866,4.90534 -0.52667,6.61867 z m -100.40533,17.34933 c -2.33867,-0.72533 -3.6,-3.17733 -2.85067,-5.596 0.74667,-2.40666 3.172,-3.70133 5.51067,-2.976 2.25733,0.7 3.53333,2.74134 3.12133,5.00134 l -2.292,-0.71067 c 0.148,-1.08533 -0.4,-2.03467 -1.408,-2.34667 -1.21466,-0.37733 -2.27466,0.324 -2.708,1.72267 -0.43733,1.40933 0.0347,2.59867 1.25067,2.976 0.996,0.30933 1.98533,-0.16267 2.492,-1.14933 l 2.292,0.712 c -0.95733,2.11466 -3.15067,3.068 -5.408,2.36666 z m 113.47066,-29.06266 -1.5,-0.76 -2.14533,2.13066 0.74133,1.51334 -1.62533,1.61466 -3.808,-8.36133 1.76267,-1.75067 8.31066,3.888 z m -5.744,-2.92134 1.27334,2.592 1.29333,-1.28533 z m -58.87333,73.3 c -2.48133,0.112 -4.52133,-1.68133 -4.63866,-4.29466 -0.11867,-2.61334 1.75066,-4.56 4.232,-4.672 2.49333,-0.11334 4.532,1.656 4.65066,4.26933 0.11867,2.61333 -1.75066,4.584 -4.244,4.69733 z m -0.092,-2.02666 c 1.35467,-0.0613 2.06,-1.21067 1.99867,-2.56534 -0.0613,-1.35466 -0.86667,-2.41066 -2.22133,-2.34933 -1.35467,0.0613 -2.06,1.18667 -1.99867,2.54133 0.0613,1.35467 0.86667,2.43467 2.22133,2.37334 z m -42.63066,1.05333 -2.972,-5.64267 -0.448,5.35734 -2.068,-0.17334 0.71866,-8.58533 2.42667,0.20267 2.75333,5.228 0.416,-4.96267 2.068,0.17333 -0.71733,8.58534 z m 41.94133,-38.41867 0.208,1.95734 -6.06133,0.648 -0.91467,-8.568 5.97733,-0.63867 0.20934,1.95733 -3.72267,0.39734 0.13067,1.22933 3.37733,-0.36133 0.20933,1.95733 -3.37733,0.36 0.15733,1.468 z m 59.24533,-25.14 -1.70533,1.496 -5.68,-6.47866 1.70533,-1.49467 z m -151.25466,-6.52933 -0.77334,-0.77067 -1.85466,1.86267 -1.60707,-1.60133 6.08173,-6.104 2.38,2.372 c 1.59734,1.592 1.84667,3.264 0.484,4.632 -1.372,1.37733 -3.112,1.20266 -4.71066,-0.39067 z m 2.87066,-2.89867 -0.764,-0.76133 -1.53333,1.53867 0.76533,0.76133 c 0.63734,0.636 1.29067,0.64267 1.756,0.176 0.47467,-0.476 0.41467,-1.07867 -0.224,-1.71467 z m 1.31067,10.37467 -1.73733,-1.45733 5.54,-6.59867 2.70266,2.268 c 1.78267,1.49733 2.13067,3.15333 0.95067,4.56 -0.70933,0.84533 -1.80133,1.11867 -3.00933,0.74667 l -0.45867,3.83066 -2.068,-1.736 0.49333,-3.33066 -0.56933,-0.47867 z m 4.336,-5.164 -1.288,1.53467 0.89067,0.748 c 0.772,0.648 1.332,0.71066 1.77066,0.18666 0.44,-0.524 0.29067,-1.07333 -0.48133,-1.72133 z m 110.48666,24.37867 c -2.304,0.92933 -4.82266,-0.0867 -5.8,-2.51334 -0.97866,-2.42666 0.14,-4.88266 2.444,-5.81066 2.31467,-0.93334 4.82534,0.06 5.80267,2.48666 0.97867,2.42667 -0.132,4.90534 -2.44667,5.83734 z m -0.75866,-1.88 c 1.25866,-0.508 1.54266,-1.82534 1.03466,-3.08267 -0.50666,-1.25733 -1.616,-1.988 -2.87333,-1.48133 -1.25733,0.50666 -1.55067,1.80266 -1.044,3.06 0.50667,1.25866 1.62533,2.01066 2.88267,1.504 z m 17.148,-6.34934 c -2.12134,1.292 -4.772,0.70267 -6.13334,-1.53066 -1.36266,-2.23467 -0.66,-4.84 1.46134,-6.13334 2.13066,-1.3 4.76933,-0.72933 6.13066,1.504 1.36134,2.23334 0.672,4.86 -1.45866,6.16 z m -1.056,-1.732 c 1.15866,-0.70533 1.22266,-2.052 0.51733,-3.21066 -0.70667,-1.15734 -1.92,-1.696 -3.07867,-0.99067 -1.15733,0.70667 -1.23466,2.032 -0.528,3.19067 0.70534,1.15733 1.932,1.716 3.08934,1.01066 z m -113.15333,3.04534 c -2.12,-1.22534 -2.808,-3.896 -1.54,-6.088 1.26133,-2.18134 3.912,-2.908 6.032,-1.68267 2.04666,1.18267 2.83866,3.456 1.93733,5.568 l -2.07867,-1.2 c 0.38534,-1.02533 0.0613,-2.072 -0.85333,-2.6 -1.10133,-0.63733 -2.28933,-0.188 -3.02267,1.08 -0.73866,1.27733 -0.54,2.54267 0.56,3.17867 0.904,0.52266 1.97334,0.28133 2.68534,-0.568 l 2.07866,1.20133 c -1.40266,1.85067 -3.752,2.29333 -5.79866,1.11067 z m 77.33066,12.96133 c -2.40266,0.46533 -4.67333,-1.1 -5.15466,-3.58667 -0.47867,-2.47333 1.04666,-4.76133 3.45066,-5.22533 2.32,-0.44933 4.40934,0.748 5.11334,2.93333 l -2.356,0.456 c -0.38134,-1.02666 -1.312,-1.604 -2.34934,-1.40266 -1.24933,0.24133 -1.85066,1.36 -1.57333,2.79733 0.28,1.44933 1.25867,2.27467 2.508,2.032 1.02533,-0.19733 1.67333,-1.08133 1.65467,-2.18933 l 2.356,-0.456 c 0.15466,2.31733 -1.328,4.192 -3.64934,4.64133 z m -42.924,-0.216 -0.18133,-1.67067 -2.95733,-0.63333 -0.86267,1.44667 -2.24,-0.48 4.92533,-7.756 2.42934,0.52 1.28133,9.08666 z m -0.688,-6.40667 -1.47733,2.48267 1.784,0.38133 z m 55.564,3.44534 -4.81333,-4.18534 1.52133,5.156 -1.99067,0.588 -2.43999,-8.26266 2.33733,-0.69067 4.46,3.876 -1.41067,-4.776 1.99067,-0.588 2.44,8.264 z m 19.99333,-8.42 -5.25066,2.67333 -3.90934,-7.67867 2.02134,-1.028 2.97733,5.84934 3.22933,-1.644 z M 275.45281,308.3985 h 7.80933 l -6.72533,1.63733 c -0.35467,-0.54933 -0.716,-1.096 -1.084,-1.63733 z m -132.19733,92.71866 h -17.1812 l 14.73053,-3.58533 c 0.784,1.21733 1.60133,2.412 2.45067,3.58533 z m -22.7308,-109.52933 -1.40214,1.98133 4.7664,3.37467 -2.91226,4.11333 -15.6268,-11.064 4.3144,-6.09333 c 2.8968,-4.092 6.46626,-5.25733 9.97026,-2.776 3.52587,2.496 3.78694,6.37333 0.89014,10.464 z m -7.41534,-5.216 -1.38666,1.95867 3.93933,2.788 1.3868,-1.95867 c 1.1556,-1.632 0.92947,-3.06667 -0.2676,-3.91333 -1.2188,-0.86267 -2.51613,-0.508 -3.67187,1.12533 z m 135.17013,213.74666 -2.388,-4.732 0.55067,4.93734 -2.03867,0.228 -0.95733,-8.56267 2.66,-0.29733 2.80667,5.56666 1.49866,-6.048 2.65867,-0.29733 0.95733,8.56267 -2.04,0.228 -0.55733,-4.99734 -1.29067,5.204 z m -10.14533,-1.83733 c 0.12933,1.772 -1.19867,3.036 -3.436,3.2 -2.23866,0.164 -3.76133,-0.916 -4.056,-2.808 l 2.28667,-0.16667 c 0.0827,0.812 0.65867,1.28667 1.59333,1.21867 0.77734,-0.0573 1.27067,-0.39333 1.23067,-0.932 -0.0267,-0.372 -0.41867,-0.62 -0.928,-0.67867 l -1.58933,-0.184 c -1.396,-0.16266 -2.364,-0.89866 -2.46534,-2.28666 -0.11733,-1.604 1.212,-2.832 3.13867,-2.97334 2.04666,-0.14933 3.60533,0.916 3.872,2.76134 l -2.28533,0.16666 c -0.11734,-0.77333 -0.68,-1.23733 -1.43467,-1.18133 -0.67067,0.048 -1.05067,0.43733 -1.016,0.904 0.028,0.38267 0.42667,0.58267 0.888,0.63333 l 1.68667,0.20134 c 1.55466,0.18666 2.42266,0.88133 2.51466,2.12533 z m 52.368,-4.79733 c -2.43067,0.51466 -4.73467,-0.92134 -5.27733,-3.48134 -0.544,-2.55866 0.984,-4.784 3.41333,-5.3 2.44267,-0.51733 4.74133,0.896 5.284,3.45467 0.544,2.55867 -0.97867,4.808 -3.42,5.32667 z m -0.42133,-1.984 c 1.32666,-0.28134 1.83466,-1.53067 1.55333,-2.85734 -0.28133,-1.32666 -1.248,-2.23733 -2.57467,-1.956 -1.32666,0.28134 -1.83866,1.50667 -1.55733,2.83334 0.28133,1.32666 1.252,2.26133 2.57867,1.98 z m -71.04667,10.68 -5.89066,0.11733 -0.172,-8.61467 2.268,-0.0453 0.13066,6.56267 3.62267,-0.072 z m -54.06133,-11.39334 -0.68533,5.13867 c -0.27734,2.06933 -1.77467,3.40667 -4.17734,3.08667 -2.42666,-0.324 -3.50933,-2.00667 -3.23333,-4.076 l 0.68533,-5.13867 2.248,0.3 -0.69066,5.17467 c -0.11867,0.892 0.11733,1.57733 1.25866,1.72933 1.12934,0.15067 1.53734,-0.448 1.656,-1.34 l 0.69067,-5.17467 z m 6.92133,9.45467 -0.35066,-1.644 -3.00534,-0.33067 -0.71066,1.528 -2.27867,-0.24933 4.11333,-8.21733 2.468,0.27066 2.19734,8.90934 z m -1.336,-6.304 -1.21733,2.61867 1.81333,0.2 z m -41.51066,-0.388 -0.188,-1.67067 -2.95814,-0.624 -0.858,1.44934 -2.24253,-0.47334 4.90267,-7.77066 2.43066,0.51333 1.308,9.08133 z m -0.70934,-6.404 -1.4688,2.48533 1.7848,0.37734 z m 141.42667,10.04667 -2.23734,0.372 -1.41333,-8.5 3.48,-0.57867 c 2.29733,-0.38133 3.78267,0.43067 4.08267,2.24133 0.18133,1.08934 -0.32,2.09734 -1.388,2.77334 l 2.61333,2.83733 -2.664,0.44267 -2.21067,-2.54 -0.73333,0.12266 z m -1.10667,-6.65334 0.32933,1.97734 1.148,-0.19067 c 0.99467,-0.16533 1.40534,-0.55067 1.292,-1.22533 -0.112,-0.67467 -0.62666,-0.91734 -1.62133,-0.752 z m -7.86933,8.19467 c -2.46,0.34667 -4.66,-1.24667 -5.024,-3.83733 -0.36534,-2.59067 1.31333,-4.70534 3.772,-5.05067 2.472,-0.348 4.668,1.22133 5.03333,3.812 0.364,2.58933 -1.31067,4.728 -3.78133,5.076 z m -0.28267,-2.008 c 1.34267,-0.18933 1.936,-1.4 1.74667,-2.74267 -0.18934,-1.34266 -1.08934,-2.31866 -2.43334,-2.12933 -1.34266,0.18933 -1.93866,1.376 -1.74933,2.71867 0.18933,1.34266 1.09333,2.34266 2.436,2.15333 z m -53.54266,3.61067 -0.036,1.968 -6.09467,-0.11067 0.156,-8.61333 6.01067,0.108 -0.0347,1.968 -3.744,-0.068 -0.0227,1.236 3.396,0.0613 -0.036,1.968 -3.39466,-0.0613 -0.0267,1.47466 z m 88.02266,-202.32267 2.20533,-3.01466 -3.90133,-5.472 -3.584,1.08266 -2.95733,-4.14666 19.708,-5.34134 3.20533,4.49467 -11.51867,16.82667 z m 8.472,-11.544 -6.14267,1.85867 2.35334,3.3 z"
       style="fill:#9092a9;fill-opacity:1;fill-rule:evenodd;stroke:none;stroke-width:1.33333" />
  </g>
</svg>
