<?xml version="1.0" encoding="UTF-8" standalone="no"?>
<!-- Created with Inkscape (http://www.inkscape.org/) -->

<svg
   version="1.1"
   id="svg1"
   width="352.34268"
   height="348.11865"
   viewBox="0 0 352.34268 348.11867"
   xmlns="http://www.w3.org/2000/svg"
   xmlns:svg="http://www.w3.org/2000/svg">
  <defs
     id="defs1" />
  <g
     id="layer-oc1"
     transform="translate(-405.70798,-111.6147)">
    <path
       id="path1"
       d="m 561.413,515.769 c -11.1,-4.82 -22.23,-9.07 -33.4,-12.56 l -0.02,0.04 c -2.24,4.78 -4.34,9.54 -6.28,14.3 -27.61,-8.02 -57.36,-12.83 -84.81,-12.83 -27.45,0 -58.18,4.81 -85.79,12.83 -1.94,-4.76 -4.04,-9.51 -6.28,-14.29 -0.03,0 -22.33,7.69 -33.42,12.51 2.52,4.38 4.89,8.78 7.11,13.16 9.95,19.77 18.845,39.248 20.37,59.28 7.837,102.928 -6.571,113.128 -6.471,113.728 65.091,24.916 136.413,27.458 215.241,3.044 0.1,-0.6 -18.757,-29.533 -13.73,-116.772 1.156,-20.057 10.42,-39.51 20.37,-59.28 2.22,-4.38 4.59,-8.78 7.11,-13.16"
       style="fill:#ffffff;fill-opacity:1;fill-rule:nonzero;stroke:none"
       transform="matrix(1.3333333,0,0,-1.3333333,0,1122.56)" />
    <path
       id="path2"
       d="m 535.117,662.171 c -1.869,-8.656 -3.125,-17.318 -3.774,-25.972 -1.165,-15.399 -0.412,-30.799 2.268,-46.19 H 339.215 c 2.68,15.391 3.433,30.791 2.268,46.19 -0.649,8.654 -1.905,17.316 -3.774,25.972 z"
       style="fill:#2b805c;fill-opacity:1;fill-rule:evenodd;stroke:none"
       transform="matrix(1.3333333,0,0,-1.3333333,0,1122.56)" />
    <path
       id="path3"
       d="m 558.766,531.183 c 2.18,-4.3 4.507,-8.62 6.981,-12.92 l 2.791,-4.851 -5.133,-2.229 c -11.266,-4.892 -22.564,-9.204 -33.901,-12.746 l -4.213,-1.317 -1.829,4.018 c 0,0 -2.545,5.594 -4.63,10.398 -26.842,-7.421 -55.44,-11.817 -81.929,-11.817 -26.492,0 -55.993,4.4 -82.927,11.824 -1.501,-3.368 -3.096,-6.732 -4.52,-10.189 l -1.733,-4.206 -4.351,1.329 c 0,0 -20.625,6.314 -34.12,12.784 l -4.861,2.33 2.688,4.672 c 2.474,4.3 4.801,8.62 6.981,12.92 9.723,19.321 16.368,38.618 19.915,57.929 0.105,0.573 0.211,1.146 0.309,1.737 l 0.003,0.018 c 2.609,14.979 3.339,29.968 2.21,44.957 v 0.001 c -0.73,9.739 -2.25,19.488 -4.574,29.251 l -0.006,0.025 c -0.09,0.396 -0.189,0.782 -0.31,1.257 l -0.02,0.089 c -0.036,0.164 -0.079,0.336 -0.13,0.53 l -0.007,0.031 c -4.599,18.582 -12.084,37.17 -22.412,55.75 l -0.004,0.009 c -0.635,1.152 -1.289,2.304 -1.953,3.456 l -2.8,4.858 5.146,2.227 c 0.683,0.296 1.356,0.581 2.039,0.867 1.614,0.689 3.237,1.359 4.841,2.009 h 10e-4 c 5.711,2.311 11.433,4.418 17.154,6.312 l 3.595,1.19 2.119,-3.138 c 2.265,-3.353 4.924,-6.357 7.891,-8.954 0.325,-0.272 0.648,-0.56 1,-0.843 l 0.026,-0.022 c 7.397,-6.128 16.637,-9.79 26.67,-9.79 0.399,0 0.798,0.009 1.231,0.027 l 0.034,10e-4 c 2.459,0.071 4.865,0.366 7.196,0.847 15.948,3.386 28.757,16.089 33.624,32.58 l 1.022,3.464 3.609,0.119 c 4.318,0.141 10.637,0.232 14.934,0.232 4.297,0 10.617,-0.091 14.934,-0.232 l 3.61,-0.119 1.022,-3.464 c 4.866,-16.493 17.678,-29.197 33.636,-32.582 2.324,-0.48 4.727,-0.774 7.217,-0.846 l 0.034,-10e-4 c 0.399,-0.017 0.798,-0.026 1.197,-0.026 10.033,0 19.273,3.662 26.697,9.812 l 0.026,0.022 c 0.323,0.26 0.646,0.547 0.969,0.818 2.972,2.601 5.63,5.605 7.895,8.957 l 2.12,3.138 3.594,-1.19 c 5.722,-1.894 11.443,-4.001 17.159,-6.314 l 0.004,-10e-4 c 0.603,-0.246 1.206,-0.491 1.809,-0.746 1.682,-0.689 3.384,-1.399 5.067,-2.129 l 5.132,-2.226 -2.786,-4.851 c -1.708,-2.974 -3.348,-5.959 -4.91,-8.936 l -0.002,-0.003 c -8.822,-16.755 -15.313,-33.527 -19.468,-50.313 l -0.008,-0.03 c -0.043,-0.164 -0.086,-0.336 -0.141,-0.589 l -0.023,-0.088 c -0.099,-0.387 -0.198,-0.773 -0.294,-1.194 l -0.006,-0.024 c -2.318,-9.739 -3.837,-19.488 -4.568,-29.228 v 0 c -1.129,-14.989 -0.398,-29.978 2.213,-44.975 l 0.003,-0.018 c 0.096,-0.573 0.201,-1.146 0.306,-1.719 3.547,-19.311 10.192,-38.608 19.915,-57.929 z m -57.901,136.154 2.368,-3.322 8.639,12.62 -2.404,3.371 -14.781,-4.005 2.218,-3.111 2.689,0.812 2.926,-4.104 z m 6.354,8.658 -2.842,-3.869 -1.765,2.475 z m -88.077,24.021 c 4.054,0.937 6.523,4.73 5.541,8.978 -0.981,4.248 -4.856,6.535 -8.909,5.598 -4.033,-0.932 -6.512,-4.686 -5.53,-8.934 0.981,-4.248 4.865,-6.574 8.898,-5.642 z m -0.761,3.294 c -2.202,-0.509 -3.848,1.019 -4.357,3.221 -0.509,2.202 0.309,4.259 2.511,4.768 2.202,0.509 3.84,-0.981 4.348,-3.183 0.509,-2.202 -0.3,-4.298 -2.502,-4.806 z m 25.315,-1.149 0.058,3.259 -7.099,0.127 7.042,7.896 0.055,3.079 -11.578,0.207 -0.058,-3.26 6.938,-0.124 -7.003,-7.956 -0.053,-3.02 z m 37.738,-14.394 3.402,-2.251 3.538,14.878 -3.452,2.285 -12.361,-9.04 3.185,-2.108 2.219,1.722 4.203,-2.782 z m 2.826,10.361 -1.265,-4.631 -2.535,1.678 z m -29.17,1.931 3.997,-0.819 -2.271,15.124 -4.056,0.831 -8.094,-13.001 3.743,-0.766 1.415,2.425 4.938,-1.011 z m -1.245,10.667 0.555,-4.768 -2.979,0.61 z m 10.236,-13.551 1.867,4.401 1.142,-0.484 0.84,-5.549 4.142,-1.757 -1.139,6.327 c 2.106,-0.003 3.712,0.967 4.43,2.661 1.195,2.817 -0.169,5.286 -3.741,6.801 l -5.413,2.296 -5.607,-13.22 z m 4.39,10.348 1.786,-0.758 c 1.546,-0.656 2.053,-1.457 1.608,-2.507 -0.445,-1.049 -1.366,-1.224 -2.913,-0.568 l -1.786,0.758 z m 25.487,-30.884 2.265,2.346 -5.108,4.931 10.535,0.977 2.139,2.215 -8.33,8.044 -2.264,-2.345 4.992,-4.821 -10.547,-1.047 -2.098,-2.172 z M 343.355,659.548 c 1.503,-7.658 2.54,-15.319 3.114,-22.974 1.19,-15.805 0.422,-31.611 -2.326,-47.398 -0.104,-0.623 -0.218,-1.246 -0.332,-1.869 v -10e-4 c -3.712,-20.207 -10.647,-40.407 -20.825,-60.631 l -0.003,-0.006 c -1.449,-2.859 -2.961,-5.727 -4.536,-8.592 8.428,-3.61 18.151,-6.915 23.591,-8.684 1.507,3.368 3.076,6.684 4.445,10.043 l 1.7,4.171 4.325,-1.256 c 27.161,-7.89 57.391,-12.632 84.395,-12.632 26.999,0 56.259,4.743 83.415,12.632 l 4.325,1.256 1.7,-4.171 c 1.099,-2.696 2.984,-6.957 4.392,-10.101 7.881,2.6 15.741,5.572 23.586,8.848 -1.554,2.83 -3.046,5.662 -4.481,8.492 l -0.003,0.006 c -10.175,20.218 -17.109,40.418 -20.822,60.626 v 10e-4 c -0.114,0.62 -0.227,1.24 -0.331,1.861 -2.749,15.794 -3.517,31.6 -2.327,47.405 0.574,7.657 1.611,15.321 3.114,22.974 z m 33.056,-138.863 -0.14,1.253 -2.219,0.468 -0.644,-1.087 -1.682,0.355 3.677,5.828 1.823,-0.385 0.981,-6.811 z m -0.531,4.803 -1.102,-1.864 1.338,-0.283 z m 113.231,-6.287 -1.671,-0.316 -1.201,6.35 2.6,0.491 c 1.716,0.325 2.843,-0.259 3.099,-1.612 0.153,-0.814 -0.206,-1.578 -0.995,-2.102 l 2.006,-2.085 -1.989,-0.376 -1.7,1.867 -0.548,-0.103 z m -0.94,4.97 0.28,-1.477 0.858,0.163 c 0.742,0.14 1.044,0.435 0.948,0.939 -0.095,0.504 -0.485,0.678 -1.228,0.537 z m -48.676,17.479 -1.7,-0.045 -0.129,4.922 -1.979,-0.052 -0.041,1.538 5.659,0.148 0.041,-1.538 -1.98,-0.052 z m -30.948,-25.984 -0.263,1.234 -2.255,0.247 -0.533,-1.146 -1.709,0.188 3.085,6.162 1.852,-0.203 1.648,-6.682 z m -1.003,4.728 -0.912,-1.964 1.359,-0.149 z m -11.673,3.388 -0.628,-4.001 c -0.224,-1.423 -1.249,-2.383 -2.965,-2.113 -1.707,0.268 -2.398,1.497 -2.174,2.919 l 1.689,-0.265 c -0.089,-0.569 -0.035,-1.033 0.721,-1.152 0.747,-0.117 0.95,0.307 1.035,0.849 l 0.632,4.028 z m 69.964,-8.024 -1.791,3.549 0.413,-3.703 -1.529,-0.17 -0.718,6.422 1.995,0.222 2.106,-4.175 1.123,4.536 1.995,0.223 0.717,-6.422 -1.529,-0.171 -0.419,3.748 -0.968,-3.903 z m -18.302,28.029 0.157,-1.467 -4.546,-0.486 -0.687,6.425 4.483,0.479 0.157,-1.467 -2.792,-0.299 0.099,-0.922 2.532,0.271 0.157,-1.468 -2.533,-0.27 0.118,-1.101 z m 10.693,-26.651 c 0.097,-1.329 -0.898,-2.277 -2.577,-2.4 -1.678,-0.122 -2.82,0.687 -3.042,2.106 l 1.715,0.125 c 0.062,-0.609 0.495,-0.965 1.195,-0.914 0.583,0.043 0.953,0.296 0.923,0.699 -0.02,0.279 -0.314,0.465 -0.696,0.509 l -1.192,0.138 c -1.047,0.122 -1.773,0.674 -1.849,1.715 -0.088,1.203 0.909,2.124 2.355,2.23 1.534,0.112 2.703,-0.687 2.903,-2.071 l -1.714,-0.125 c -0.088,0.58 -0.51,0.928 -1.076,0.887 -0.502,-0.037 -0.788,-0.329 -0.762,-0.679 0.021,-0.287 0.321,-0.437 0.666,-0.474 l 1.266,-0.152 c 1.165,-0.14 1.817,-0.661 1.885,-1.594 z m 23.723,0.817 -1.678,-0.278 -1.06,6.374 2.61,0.434 c 1.723,0.286 2.837,-0.322 3.063,-1.681 0.135,-0.817 -0.241,-1.572 -1.042,-2.08 l 1.96,-2.128 -1.998,-0.332 -1.657,1.905 -0.551,-0.092 z m -0.83,4.99 0.247,-1.483 0.861,0.143 c 0.746,0.124 1.054,0.413 0.97,0.919 -0.084,0.506 -0.471,0.688 -1.216,0.564 z m -77.764,-0.186 -0.514,-3.854 c -0.208,-1.552 -1.331,-2.555 -3.133,-2.315 -1.82,0.243 -2.632,1.505 -2.425,3.057 l 0.515,3.854 1.686,-0.225 -0.518,-3.881 c -0.09,-0.669 0.087,-1.183 0.943,-1.297 0.848,-0.113 1.153,0.336 1.242,1.006 l 0.518,3.88 z m 93.227,44.27 -1.124,0.57 -1.61,-1.598 0.557,-1.135 -1.22,-1.211 -2.855,6.272 1.321,1.313 6.234,-2.917 z m -4.307,2.191 0.954,-1.944 0.971,0.964 z m -72.055,-26.069 -0.137,1.253 -2.218,0.476 -0.646,-1.086 -1.681,0.36 3.694,5.817 1.822,-0.39 0.961,-6.815 z m -0.517,4.805 -1.108,-1.861 1.338,-0.287 z m 24.198,-33.742 -4.418,-0.087 -0.128,6.46 1.7,0.034 0.098,-4.922 2.718,0.054 z m -72.681,9.746 c -0.303,-1.297 -1.536,-1.906 -3.175,-1.524 -1.639,0.383 -2.488,1.496 -2.277,2.916 l 1.674,-0.39 c -0.121,-0.601 0.185,-1.069 0.869,-1.229 0.57,-0.133 0.998,-0.002 1.09,0.393 0.063,0.271 -0.162,0.536 -0.513,0.692 l -1.098,0.487 c -0.962,0.428 -1.492,1.171 -1.254,2.188 0.274,1.174 1.5,1.757 2.911,1.428 1.499,-0.35 2.377,-1.46 2.156,-2.842 l -1.674,0.391 c 0.089,0.58 -0.211,1.038 -0.763,1.167 -0.491,0.114 -0.85,-0.079 -0.93,-0.421 -0.065,-0.28 0.176,-0.512 0.495,-0.651 l 1.163,-0.521 c 1.071,-0.481 1.538,-1.172 1.326,-2.084 z m 115.563,34.284 c -1.505,-1.128 -3.517,-0.905 -4.727,0.708 -1.144,1.527 -0.874,3.507 0.645,4.646 1.296,0.972 2.816,0.941 4.045,0.052 l -1.613,-1.21 c -0.427,0.299 -1.03,0.308 -1.555,-0.086 -0.67,-0.502 -0.859,-1.375 -0.098,-2.39 0.648,-0.864 1.575,-1.216 2.511,-0.514 0.591,0.443 0.709,1.05 0.537,1.595 l -1.246,-0.934 -0.804,1.073 2.7,2.025 c 1.387,-1.626 1.319,-3.68 -0.395,-4.965 z m 0.715,9.47 -1.191,-1.044 -0.352,1.63 1.326,1.163 z m -26.122,-22.341 -3.61,3.138 1.142,-3.867 -1.494,-0.441 -1.829,6.197 1.752,0.518 3.345,-2.907 -1.058,3.582 1.494,0.441 1.829,-6.198 z m -8.964,-2.384 c -1.802,-0.349 -3.505,0.825 -3.866,2.69 -0.359,1.855 0.785,3.571 2.588,3.92 1.74,0.336 3.308,-0.561 3.836,-2.201 l -1.768,-0.342 c -0.286,0.77 -0.984,1.203 -1.762,1.053 -0.936,-0.182 -1.388,-1.021 -1.18,-2.099 0.211,-1.086 0.944,-1.705 1.881,-1.524 0.769,0.149 1.255,0.811 1.241,1.642 l 1.767,0.342 c 0.116,-1.737 -0.996,-3.144 -2.737,-3.481 z m -40.933,2.243 c -1.754,0.544 -2.7,2.383 -2.137,4.197 0.56,1.805 2.378,2.777 4.132,2.233 1.693,-0.526 2.65,-2.057 2.341,-3.752 l -1.719,0.534 c 0.111,0.813 -0.299,1.525 -1.056,1.76 -0.911,0.282 -1.705,-0.244 -2.031,-1.293 -0.328,-1.057 0.027,-1.949 0.938,-2.232 0.748,-0.232 1.489,0.123 1.869,0.862 l 1.719,-0.533 c -0.718,-1.587 -2.363,-2.301 -4.056,-1.776 z m 80.489,17.412 -1.279,-1.122 -4.261,4.859 1.279,1.122 z m -24.189,-15.121 c -1.728,-0.697 -3.617,0.065 -4.35,1.885 -0.734,1.82 0.106,3.662 1.833,4.359 1.737,0.7 3.619,-0.046 4.352,-1.866 0.734,-1.819 -0.099,-3.678 -1.835,-4.378 z m -0.568,1.411 c 0.943,0.38 1.156,1.368 0.776,2.311 -0.381,0.944 -1.213,1.491 -2.156,1.111 -0.943,-0.38 -1.163,-1.352 -0.783,-2.295 0.38,-0.943 1.219,-1.508 2.163,-1.127 z m -37.308,-4.651 -0.217,-2.421 -1.694,0.152 0.217,2.42 -1.891,4.218 1.829,-0.164 1.106,-2.584 1.574,2.344 1.704,-0.152 z m 46.468,7.404 -3.938,-2.005 -2.932,5.759 1.516,0.772 2.234,-4.388 2.422,1.234 z m 3.7,2.009 c -1.59,-0.97 -3.579,-0.527 -4.6,1.148 -1.021,1.675 -0.495,3.63 1.096,4.599 1.598,0.975 3.577,0.548 4.598,-1.128 1.022,-1.675 0.505,-3.645 -1.094,-4.619 z m -0.792,1.298 c 0.869,0.53 0.917,1.539 0.388,2.408 -0.53,0.868 -1.44,1.272 -2.308,0.743 -0.869,-0.53 -0.927,-1.524 -0.397,-2.392 0.529,-0.869 1.449,-1.288 2.317,-0.759 z m -89.86,0.992 0.365,1.207 -1.855,1.305 -1.02,-0.746 -1.406,0.989 5.676,3.907 1.524,-1.072 -1.782,-6.647 z m 1.405,4.624 -1.748,-1.28 1.119,-0.787 z M 507.03,525.204 c 0.305,-1.297 -0.529,-2.39 -2.167,-2.775 -1.638,-0.386 -2.894,0.234 -3.336,1.6 l 1.674,0.394 c 0.157,-0.592 0.64,-0.876 1.324,-0.715 0.569,0.134 0.894,0.442 0.802,0.836 -0.064,0.272 -0.383,0.409 -0.768,0.393 l -1.199,-0.051 c -1.053,-0.045 -1.857,0.386 -2.096,1.402 -0.276,1.174 0.564,2.241 1.974,2.573 1.498,0.352 2.778,-0.253 3.194,-1.588 l -1.674,-0.394 c -0.177,0.559 -0.649,0.837 -1.201,0.707 -0.491,-0.116 -0.727,-0.449 -0.647,-0.79 0.066,-0.281 0.386,-0.381 0.733,-0.364 l 1.274,0.05 c 1.173,0.045 1.898,-0.367 2.113,-1.278 z m -125.368,36.728 -1.303,1.094 4.156,4.948 2.026,-1.701 c 1.337,-1.123 1.599,-2.365 0.713,-3.419 -0.532,-0.634 -1.351,-0.84 -2.257,-0.561 l -0.344,-2.873 -1.55,1.302 0.369,2.498 -0.427,0.359 z m 3.252,3.873 -0.966,-1.151 0.669,-0.561 c 0.579,-0.486 0.998,-0.533 1.328,-0.14 0.33,0.393 0.217,0.805 -0.362,1.291 z m -6.388,1.734 -0.58,0.578 -1.391,-1.397 -1.205,1.201 4.561,4.578 1.785,-1.779 c 1.199,-1.194 1.386,-2.447 0.363,-3.474 -1.029,-1.033 -2.334,-0.901 -3.533,0.293 z m 2.154,2.174 -0.574,0.572 -1.15,-1.154 0.574,-0.572 c 0.478,-0.477 0.968,-0.482 1.317,-0.131 0.356,0.357 0.311,0.808 -0.167,1.285 z m 94.537,-52.916 c -1.845,-0.259 -3.494,0.935 -3.768,2.878 -0.273,1.943 0.985,3.529 2.83,3.788 1.853,0.261 3.501,-0.916 3.774,-2.858 0.273,-1.943 -0.982,-3.547 -2.836,-3.808 z m -0.212,1.506 c 1.007,0.142 1.452,1.05 1.31,2.057 -0.142,1.007 -0.817,1.739 -1.824,1.597 -1.007,-0.141 -1.455,-1.031 -1.313,-2.039 0.142,-1.007 0.82,-1.756 1.827,-1.615 z m -58.927,-3.33 -2.229,4.232 -0.337,-4.018 -1.551,0.13 0.539,6.44 1.82,-0.153 2.066,-3.921 0.311,3.722 1.552,-0.129 -0.539,-6.44 z m -32.251,4.267 -1.788,4.437 -0.742,-3.963 -1.53,0.286 1.189,6.352 1.795,-0.336 1.658,-4.11 0.687,3.671 1.53,-0.286 -1.189,-6.352 z m 41.33,-4.839 -2.518,0.114 0.292,6.455 2.518,-0.114 c 2.041,-0.092 3.267,-1.463 3.182,-3.342 -0.085,-1.879 -1.478,-3.204 -3.474,-3.113 z m -0.593,5.027 -0.159,-3.525 0.719,-0.032 c 1.124,-0.051 1.708,0.508 1.763,1.722 0.051,1.142 -0.498,1.752 -1.603,1.802 z m 23.555,-5.184 c -1.861,-0.085 -3.39,1.26 -3.479,3.22 -0.089,1.96 1.313,3.42 3.175,3.505 1.87,0.084 3.398,-1.243 3.487,-3.203 0.089,-1.96 -1.313,-3.438 -3.183,-3.522 z m -0.069,1.519 c 1.016,0.046 1.545,0.908 1.499,1.924 -0.046,1.016 -0.65,1.808 -1.666,1.762 -1.016,-0.046 -1.545,-0.89 -1.499,-1.906 0.046,-1.015 0.65,-1.826 1.666,-1.78 z m -53.636,36.945 c -1.59,0.919 -2.105,2.922 -1.155,4.566 0.946,1.636 2.934,2.181 4.524,1.262 1.535,-0.887 2.129,-2.592 1.453,-4.176 l -1.559,0.901 c 0.289,0.768 0.046,1.553 -0.64,1.95 -0.826,0.477 -1.717,0.14 -2.266,-0.811 -0.554,-0.958 -0.406,-1.907 0.42,-2.384 0.678,-0.392 1.479,-0.211 2.013,0.426 l 1.559,-0.9 c -1.052,-1.388 -2.814,-1.721 -4.349,-0.834 z m 103.088,-31.973 c -1.822,-0.387 -3.551,0.691 -3.958,2.61 -0.407,1.919 0.738,3.588 2.561,3.975 1.831,0.389 3.555,-0.671 3.963,-2.591 0.407,-1.919 -0.735,-3.606 -2.566,-3.994 z m -0.316,1.488 c 0.995,0.211 1.376,1.147 1.165,2.142 -0.211,0.995 -0.936,1.678 -1.931,1.467 -0.995,-0.211 -1.379,-1.13 -1.168,-2.125 0.211,-0.994 0.939,-1.696 1.934,-1.484 z m -95.404,26.839 -1.542,0.719 2.082,4.461 -1.795,0.837 0.651,1.395 5.13,-2.393 -0.65,-1.395 -1.795,0.837 z m 4.936,-2.054 -1.584,0.619 2.351,6.019 1.584,-0.619 z m 28.13,-31.413 -0.026,-1.476 -4.572,0.083 0.117,6.461 4.509,-0.082 -0.027,-1.476 -2.808,0.051 -0.016,-0.927 2.546,-0.046 -0.027,-1.476 -2.546,0.047 -0.02,-1.107 z m -31.776,179.118 -1.94,4.368 1.133,0.503 4.627,-3.175 4.113,1.827 -5.401,3.488 c 1.44,1.537 1.828,3.372 1.081,5.054 -1.242,2.797 -3.977,3.486 -7.523,1.911 l -5.374,-2.387 5.829,-13.124 z m -4.563,10.272 1.773,0.787 c 1.536,0.682 2.468,0.505 2.931,-0.536 0.462,-1.042 -0.039,-1.834 -1.575,-2.516 l -1.773,-0.788 z m -28.49,-32.829 c 2.173,3.068 1.977,5.976 -0.667,7.848 -2.629,1.861 -5.306,0.987 -7.478,-2.082 l -3.236,-4.57 11.72,-8.298 2.184,3.085 -3.575,2.531 z m -5.561,3.913 c 0.866,1.224 1.839,1.491 2.754,0.843 0.897,-0.635 1.067,-1.711 0.2,-2.935 l -1.04,-1.469 -2.954,2.091 z m 27.308,11.888 c 3.639,2.544 4.301,6.764 1.906,10.19 -2.395,3.426 -6.412,4.181 -10.133,1.58 l -4.59,-3.209 8.227,-11.769 z m -7.851,8.055 1.311,0.917 c 2.017,1.409 3.811,1.077 5.266,-1.005 1.547,-2.213 1.275,-3.989 -0.774,-5.421 l -1.311,-0.917 z m -0.683,-10.477 -4.497,-4.525 -1.745,1.734 3.99,4.014 -2.326,2.313 -3.99,-4.015 -1.461,1.453 4.399,4.425 -2.326,2.313 -7.064,-7.107 10.184,-10.123 7.163,7.205 z"
       style="fill:#264597;fill-opacity:1;fill-rule:evenodd;stroke:none"
       transform="matrix(1.3333333,0,0,-1.3333333,0,1122.56)" />
    <path
       id="path4"
       d="m 493.448,616.194 c 0.258,1.586 0.43,3.165 0.557,4.738 l 12.097,2.761 c 0.079,2.882 -0.021,5.738 -0.291,8.554 l -12.251,1.901 c -0.477,3.175 -1.221,6.277 -2.201,9.287 l 10.115,7.176 c -1.029,2.672 -2.22,5.272 -3.56,7.786 l -12.05,-2.933 c -1.644,2.726 -3.508,5.313 -5.573,7.736 l 6.598,10.5 c -1.96,2.068 -4.049,4.021 -6.257,5.843 l -10.01,-7.322 c -2.545,1.883 -5.252,3.571 -8.113,5.028 l 2.077,12.223 c -2.586,1.149 -5.263,2.147 -8.022,2.986 l -6.449,-10.601 c -1.533,0.378 -3.085,0.715 -4.671,0.972 -1.586,0.258 -3.165,0.431 -4.738,0.557 l -2.761,12.098 c -2.882,0.078 -5.738,-0.021 -8.554,-0.292 l -1.901,-12.251 c -3.175,-0.477 -6.277,-1.221 -9.287,-2.201 l -7.176,10.115 c -2.672,-1.029 -5.272,-2.219 -7.786,-3.56 l 2.933,-12.05 c -2.726,-1.644 -5.313,-3.507 -7.736,-5.573 l -10.5,6.599 c -2.068,-1.961 -4.021,-4.05 -5.843,-6.258 l 7.322,-10.01 c -1.883,-2.545 -3.571,-5.252 -5.028,-8.113 l -12.223,2.078 c -1.149,-2.587 -2.147,-5.264 -2.986,-8.022 l 10.601,-6.45 c -0.378,-1.533 -0.715,-3.085 -0.972,-4.671 -0.258,-1.585 -0.431,-3.164 -0.557,-4.738 l -12.098,-2.761 c -0.078,-2.882 0.021,-5.737 0.292,-8.554 l 12.251,-1.901 c 0.477,-3.175 1.221,-6.277 2.201,-9.287 l -10.115,-7.176 c 1.029,-2.672 2.219,-5.271 3.56,-7.786 l 12.05,2.933 c 1.644,-2.726 3.507,-5.313 5.573,-7.735 l -6.599,-10.501 c 1.961,-2.068 4.05,-4.021 6.258,-5.843 l 10.01,7.322 c 2.545,-1.882 5.252,-3.57 8.113,-5.028 l -2.078,-12.223 c 2.587,-1.149 5.264,-2.147 8.022,-2.985 l 6.45,10.601 c 1.533,-0.379 3.085,-0.715 4.671,-0.973 1.585,-0.258 3.164,-0.43 4.738,-0.557 l 2.761,-12.097 c 2.882,-0.079 5.737,0.02 8.554,0.291 l 1.901,12.252 c 3.175,0.476 6.277,1.22 9.287,2.2 l 7.176,-10.115 c 2.672,1.029 5.271,2.219 7.786,3.56 l -2.933,12.05 c 2.726,1.644 5.313,3.508 7.735,5.573 l 10.501,-6.599 c 2.068,1.961 4.021,4.05 5.843,6.258 l -7.322,10.01 c 1.882,2.545 3.57,5.252 5.028,8.113 l 12.223,-2.077 c 1.149,2.586 2.147,5.263 2.985,8.022 l -10.601,6.449 c 0.379,1.533 0.715,3.085 0.973,4.671"
       style="fill:#9092a9;fill-opacity:1;fill-rule:nonzero;stroke:none"
       transform="matrix(1.3333333,0,0,-1.3333333,0,1122.56)" />
    <path
       id="path5"
       d="m 481.413,625.509 c 0,-24.853 -20.147,-45 -45,-45 -24.853,0 -45,20.147 -45,45 0,24.853 20.147,45 45,45 24.853,0 45,-20.147 45,-45"
       style="fill:#ebec42;fill-opacity:1;fill-rule:nonzero;stroke:none"
       transform="matrix(1.3333333,0,0,-1.3333333,0,1122.56)" />
    <path
       id="path6"
       style="fill:#2b805c;fill-opacity:1;fill-rule:nonzero;stroke:none"
       d="m 401.27784,633.25009 v -17.23242 h 24.38379 v 3.93604 h -15.31201 v 2.95166 h 13.58496 v 3.93603 h -13.58496 v 2.47266 h 14.97656 v 3.93603 z m 26.92823,0 v -4.10449 h 10.56005 v -13.12793 h 9.07178 v 13.12793 h 10.56006 v 4.10449 z m 34.27148,0 v -17.23242 h 9.07178 v 17.23242 z"
       transform="matrix(1.3333333,0,0,-1.3333333,0,1122.56)" />
    <path
       id="path9"
       d="m 495.916,615.792 c -0.169,-1.038 -0.37,-2.062 -0.593,-3.075 l 10.709,-6.515 -0.564,-1.855 c -0.868,-2.858 -1.902,-5.631 -3.092,-8.31 l -0.789,-1.775 c 0,0 -12.356,2.099 -12.356,2.099 -1.012,-1.842 -2.117,-3.619 -3.305,-5.33 l 7.401,-10.118 -1.237,-1.499 c -1.886,-2.286 -3.909,-4.45 -6.051,-6.48 l -1.407,-1.335 c 0,0 -10.614,6.669 -10.614,6.669 -1.629,-1.305 -3.324,-2.527 -5.078,-3.659 l 2.964,-12.179 -1.712,-0.912 c -2.604,-1.389 -5.296,-2.622 -8.063,-3.687 l -1.814,-0.699 c 0,0 -7.252,10.224 -7.252,10.224 -2,-0.585 -4.035,-1.07 -6.103,-1.447 l -1.921,-12.385 -1.933,-0.186 c -2.919,-0.281 -5.877,-0.383 -8.862,-0.301 l -1.938,0.053 c 0,0 -2.789,12.22 -2.789,12.22 -1.033,0.109 -2.068,0.243 -3.105,0.412 -1.038,0.169 -2.062,0.369 -3.076,0.593 l -6.516,-10.709 -1.855,0.564 c -2.857,0.868 -5.63,1.902 -8.31,3.092 l -1.775,0.788 c 0,0 2.101,12.357 2.101,12.357 -1.842,1.012 -3.62,2.117 -5.331,3.304 l -10.117,-7.4 -1.499,1.236 c -2.287,1.887 -4.45,3.91 -6.481,6.051 l -1.335,1.408 c 0,0 6.67,10.614 6.67,10.613 -1.306,1.63 -2.527,3.325 -3.659,5.079 l -12.179,-2.964 -0.913,1.711 c -1.389,2.605 -2.621,5.297 -3.687,8.064 l -0.698,1.813 c 0,0 10.223,7.253 10.223,7.253 -0.585,1.999 -1.07,4.035 -1.447,6.102 l -12.384,1.922 -0.186,1.933 c -0.281,2.918 -0.384,5.876 -0.303,8.861 l 0.053,1.939 c 0,0 12.222,2.789 12.221,2.789 0.11,1.032 0.244,2.067 0.413,3.105 0.168,1.038 0.369,2.062 0.592,3.075 l -10.71,6.517 0.564,1.855 c 0.869,2.857 1.903,5.63 3.093,8.309 l 0.789,1.776 c 0,0 12.356,-2.101 12.356,-2.101 1.012,1.842 2.117,3.62 3.305,5.331 l -7.401,10.117 1.237,1.499 c 1.887,2.286 3.909,4.45 6.051,6.481 l 1.408,1.335 c 0,0 10.612,-6.67 10.612,-6.67 1.63,1.306 3.325,2.527 5.08,3.659 l -2.965,12.179 1.712,0.912 c 2.603,1.389 5.296,2.622 8.064,3.688 l 1.813,0.698 c 0,0 7.253,-10.223 7.253,-10.224 1.999,0.586 4.035,1.071 6.102,1.448 l 1.922,12.384 1.933,0.186 c 2.917,0.281 5.875,0.383 8.861,0.303 l 1.938,-0.053 c 0,0 2.789,-12.222 2.789,-12.222 1.033,-0.109 2.067,-0.243 3.105,-0.412 1.038,-0.168 2.062,-0.369 3.076,-0.592 l 6.515,10.71 1.856,-0.565 c 2.858,-0.869 5.631,-1.903 8.309,-3.093 l 1.775,-0.788 c 0,0 -2.099,-12.356 -2.099,-12.356 1.841,-1.012 3.619,-2.117 5.33,-3.305 l 10.118,7.401 1.498,-1.237 c 2.287,-1.887 4.451,-3.91 6.481,-6.052 l 1.334,-1.407 c 0,0 -6.669,-10.613 -6.669,-10.613 1.306,-1.629 2.527,-3.324 3.659,-5.079 l 12.18,2.964 0.912,-1.711 c 1.388,-2.604 2.622,-5.297 3.687,-8.064 l 0.698,-1.813 c 0,0 -10.223,-7.253 -10.223,-7.253 0.585,-1.999 1.07,-4.035 1.447,-6.102 l 12.385,-1.922 0.186,-1.934 c 0.279,-2.917 0.383,-5.875 0.301,-8.861 l -0.053,-1.937 c 0,0 -12.221,-2.79 -12.221,-2.79 -0.109,-1.032 -0.242,-2.067 -0.411,-3.105 z m -4.935,0.803 c 0.247,1.519 0.411,3.031 0.532,4.538 l 0.148,1.828 c 0,0 11.967,2.731 11.967,2.731 -10e-4,1.471 -0.052,2.934 -0.149,4.387 l -12.118,1.88 -0.273,1.817 c -0.456,3.038 -1.168,6.005 -2.106,8.885 l -0.569,1.748 c 0,0 10.006,7.1 10.006,7.1 -0.566,1.352 -1.175,2.684 -1.826,3.993 l -11.921,-2.902 -0.949,1.573 c -1.573,2.609 -3.358,5.086 -5.335,7.405 l -1.19,1.397 c 0,0 6.527,10.389 6.527,10.389 -1.035,1.032 -2.105,2.031 -3.208,2.997 l -9.903,-7.244 -1.479,1.094 c -2.434,1.801 -5.024,3.416 -7.76,4.81 l -1.638,0.834 c 0,0 2.054,12.092 2.054,12.092 -1.347,0.552 -2.719,1.063 -4.114,1.53 l -6.379,-10.487 -1.781,0.439 c -1.468,0.362 -2.954,0.686 -4.473,0.932 h -10e-4 c -1.519,0.247 -3.03,0.412 -4.536,0.533 l -1.83,0.146 c 0,0 -2.731,11.969 -2.731,11.969 -1.471,-0.002 -2.934,-0.052 -4.387,-0.149 l -1.88,-12.119 -1.817,-0.273 c -3.038,-0.456 -6.005,-1.168 -8.885,-2.106 l -1.749,-0.569 c 0,0 -7.099,10.007 -7.099,10.007 -1.352,-0.566 -2.684,-1.175 -3.993,-1.826 l 2.901,-11.922 -1.572,-0.948 c -2.609,-1.574 -5.085,-3.357 -7.405,-5.335 l -1.397,-1.191 c 0,0 -10.388,6.528 -10.388,6.528 -1.033,-1.035 -2.033,-2.106 -2.998,-3.209 l 7.244,-9.903 -1.094,-1.478 c -1.801,-2.435 -3.416,-5.024 -4.81,-7.761 l -0.834,-1.638 c 0,0 -12.092,2.055 -12.092,2.055 -0.552,-1.347 -1.063,-2.719 -1.53,-4.113 l 10.487,-6.381 -0.44,-1.781 c -0.361,-1.468 -0.685,-2.954 -0.931,-4.473 v -10e-4 c -0.247,-1.517 -0.412,-3.029 -0.533,-4.536 l -0.146,-1.829 c 0,0 -11.97,-2.732 -11.97,-2.732 0.002,-1.471 0.052,-2.933 0.15,-4.386 l 12.118,-1.881 0.273,-1.817 c 0.457,-3.037 1.169,-6.005 2.106,-8.884 l 0.57,-1.749 c 0,0 -10.007,-7.099 -10.007,-7.1 0.566,-1.352 1.175,-2.683 1.826,-3.993 l 11.922,2.902 0.948,-1.572 c 1.574,-2.61 3.357,-5.086 5.334,-7.404 l 1.192,-1.397 c 0,0 -6.529,-10.39 -6.529,-10.39 1.036,-1.032 2.107,-2.032 3.21,-2.997 l 9.902,7.243 1.479,-1.093 c 2.434,-1.801 5.024,-3.416 7.761,-4.811 l 1.638,-0.834 c 0,0 -2.056,-12.091 -2.056,-12.092 1.348,-0.552 2.72,-1.062 4.114,-1.53 l 6.381,10.489 1.782,-0.44 c 1.468,-0.363 2.954,-0.686 4.473,-0.933 1.518,-0.247 3.03,-0.411 4.537,-0.532 l 1.828,-0.148 c 0,0 2.732,-11.968 2.732,-11.968 1.471,0.002 2.933,0.052 4.386,0.149 l 1.881,12.12 1.818,0.273 c 3.037,0.455 6.004,1.167 8.883,2.105 l 1.749,0.569 c 0,0 7.099,-10.007 7.099,-10.007 1.353,0.566 2.684,1.176 3.994,1.827 l -2.902,11.921 1.572,0.948 c 2.609,1.574 5.086,3.358 7.404,5.335 l 1.398,1.191 c 0,0 10.389,-6.528 10.389,-6.528 1.032,1.036 2.032,2.106 2.997,3.209 l -7.243,9.903 1.093,1.478 c 1.801,2.435 3.416,5.025 4.811,7.762 l 0.834,1.637 c 0,0 12.091,-2.054 12.091,-2.054 0.553,1.347 1.063,2.719 1.53,4.113 l -10.488,6.381 0.44,1.782 c 0.363,1.467 0.686,2.953 0.933,4.472 z m -7.068,8.914 c 0,-26.216 -21.284,-47.5 -47.5,-47.5 -26.216,0 -47.5,21.284 -47.5,47.5 0,26.216 21.284,47.5 47.5,47.5 26.216,0 47.5,-21.284 47.5,-47.5 z m -6.161,9.899 c -4.465,18.689 -21.29,32.601 -41.339,32.601 -19.151,0 -35.361,-12.695 -40.666,-30.121 1.739,1.506 3.972,2.907 6.839,4.019 0.901,0.35 1.496,1.164 1.791,2.084 0.301,0.939 0.833,1.762 1.713,2.362 0.772,0.526 1.849,0.896 3.386,0.903 0.077,0.023 0.733,0.223 1.209,0.417 1.125,0.458 2.462,1.09 3.256,1.393 0.784,0.299 1.382,0.27 1.592,0.211 l 10e-4,-0.001 c 0.484,-0.137 1.046,-0.56 1.482,-1.279 0.253,-0.415 0.495,-0.953 0.722,-1.449 0.096,-0.212 0.241,-0.494 0.31,-0.628 0.048,-0.03 0.095,-0.06 0.137,-0.089 0.139,0.043 0.349,0.113 0.554,0.201 1.095,0.467 2.186,1.128 3.719,1.508 0.418,0.104 0.676,0.487 0.715,0.916 0.277,3.104 2.951,7.166 4.685,9.892 0.623,0.98 2.161,1.657 3.769,1.661 1.624,0.004 3.163,-0.681 3.776,-1.685 1.189,-1.949 1.831,-5.932 2.659,-7.912 0.143,-0.342 0.538,-0.381 0.909,-0.369 0.669,0.022 1.234,0.231 2.166,-0.073 l -0.037,0.011 c 0.197,-0.06 1.291,-0.413 1.989,-1.002 h 10e-4 c 0.268,-0.227 0.626,-0.762 0.841,-1.564 0.413,-1.539 0.649,-4.546 0.688,-5.077 0.007,-0.037 0.016,-0.086 0.026,-0.146 0.052,0.095 0.104,0.191 0.156,0.288 0.754,1.417 1.401,3.075 1.784,4.106 0.011,0.054 0.059,0.287 0.06,0.289 0.034,0.285 0.154,1.101 0.485,1.829 0.402,0.887 1.098,1.596 2.028,1.798 0.769,0.167 1.164,0.081 1.484,-0.021 0.12,-0.038 0.189,-0.148 0.479,-0.148 2.506,0 3.908,0.063 4.346,0.086 0.204,0.177 0.558,0.436 1.07,0.651 0.457,0.193 1.805,0.317 2.78,0.349 v 0 c 0.312,0.01 0.624,-0.006 0.932,-0.055 1.5,-0.237 2.218,-0.965 3.797,-2.208 0.217,-0.171 0.537,-0.518 0.877,-0.919 0.268,-0.317 0.761,-0.842 0.86,-0.946 0.599,-0.274 1.477,-0.954 2.386,-1.839 1.896,-1.846 4.111,-4.559 4.111,-4.559 l 0.042,-0.051 0.037,-0.055 c 0.124,-0.182 2.849,-2.881 5.393,-5.379 z m -83.433,-4.005 c -0.267,-1.926 -0.406,-3.894 -0.406,-5.894 0,-23.456 19.044,-42.5 42.5,-42.5 23.456,0 42.5,19.044 42.5,42.5 0,1.637 -0.093,3.253 -0.273,4.843 -2.749,2.69 -8.438,8.338 -8.754,8.738 l 0.069,-0.093 c 0,0 -2.089,2.563 -3.878,4.305 -0.603,0.587 -1.127,1.1 -1.495,1.241 v 0 c -0.305,0.117 -0.719,0.401 -1.126,0.82 -0.46,0.475 -0.974,1.206 -1.265,1.435 -0.522,0.411 -0.922,0.765 -1.295,1.055 -0.35,0.273 -0.651,0.475 -1.117,0.549 h -10e-4 c -0.12,0.019 -0.242,0.023 -0.363,0.019 -0.557,-0.019 -1.634,-0.124 -1.763,-0.137 -0.301,-0.136 -0.329,-0.247 -0.407,-0.314 -0.063,-0.054 -0.129,-0.104 -0.202,-0.153 -0.21,-0.139 -0.496,-0.29 -1.078,-0.371 -0.591,-0.082 -1.852,-0.113 -4.844,-0.113 -0.318,0 -0.558,0.032 -0.753,0.074 -0.151,0.033 -0.323,0.092 -0.454,0.141 -0.044,-0.085 -0.103,-0.202 -0.129,-0.281 -0.129,-0.383 -0.161,-0.744 -0.161,-0.744 l -0.006,-0.07 -0.013,-0.069 c 0,0 -0.121,-0.613 -0.192,-0.801 -0.727,-1.959 -2.42,-5.983 -4.017,-7.331 -0.455,-0.384 -0.999,-0.502 -1.568,-0.372 -0.672,0.153 -1.413,0.851 -1.628,1.521 -0.239,0.745 -0.549,2.5 -0.549,2.5 l -0.014,0.077 -0.684,4.849 c -0.315,0.183 -0.685,0.272 -0.713,0.28 l -0.034,0.011 c -0.209,0.068 -0.36,0.018 -0.505,-0.004 -0.209,-0.033 -0.415,-0.062 -0.63,-0.069 -1.655,-0.056 -3.139,0.684 -3.777,2.211 -0.779,1.862 -1.321,5.621 -2.434,7.476 -0.03,0.018 -0.163,0.097 -0.251,0.128 -0.288,0.105 -0.632,0.15 -0.974,0.149 -0.346,-10e-4 -0.694,-0.048 -0.987,-0.154 -0.102,-0.037 -0.212,-0.044 -0.259,-0.117 -1.51,-2.376 -3.986,-5.844 -4.228,-8.55 -0.154,-1.715 -1.31,-3.145 -2.981,-3.56 v 0 c -1.351,-0.334 -2.3,-0.945 -3.264,-1.356 -1.024,-0.436 -1.63,-0.507 -2.025,-0.484 -0.465,0.027 -0.792,0.164 -1.083,0.347 -0.096,0.061 -0.276,0.196 -0.32,0.229 -0.24,0.112 -0.509,0.307 -0.754,0.621 -0.218,0.279 -0.46,0.737 -0.696,1.251 -0.109,0.239 -0.274,0.565 -0.413,0.836 -0.831,-0.358 -2.264,-0.97 -3.173,-1.322 -0.825,-0.321 -1.538,-0.494 -1.929,-0.494 -1.396,0 -2.051,-0.438 -2.289,-1.181 -0.573,-1.784 -1.815,-3.286 -3.563,-3.964 -5.132,-1.992 -7.881,-5.05 -9.352,-7.708 z m 51.287,-45.472 -0.617,1.1 -2.226,-0.431 -0.171,-1.252 -1.687,-0.327 1.123,6.799 1.829,0.354 3.551,-5.895 z m -2.357,4.219 -0.29,-2.146 1.343,0.26 z m 12.82,-0.19 -1.386,-0.71 -2.162,4.222 -1.001,-0.513 -0.611,1.194 2.387,1.222 z m 0.013,7.281 c 1.196,0.834 2.561,0.622 3.179,-0.263 0.427,-0.613 0.563,-1.122 0.473,-2.063 l -0.271,-2.822 -1.432,-0.998 0.234,2.653 -0.081,-0.056 c -1.063,-0.741 -2.258,-0.554 -2.907,0.376 -0.674,0.967 -0.405,2.328 0.805,3.173 z m 0.727,-1.074 c -0.355,-0.247 -0.56,-0.676 -0.241,-1.133 0.335,-0.48 0.803,-0.428 1.157,-0.181 0.355,0.247 0.573,0.674 0.238,1.154 -0.319,0.457 -0.8,0.407 -1.154,0.16 z m -34.7,-8.662 -2.367,0.865 2.219,6.069 2.367,-0.865 c 1.919,-0.701 2.676,-2.377 2.03,-4.144 -0.646,-1.767 -2.372,-2.611 -4.249,-1.925 z m 0.946,4.973 -1.212,-3.314 0.677,-0.247 c 1.056,-0.386 1.781,-0.029 2.198,1.112 0.393,1.074 0.053,1.821 -0.987,2.201 z m 7.723,-7.205 -0.182,1.248 -2.234,0.394 -0.607,-1.109 -1.692,0.299 3.48,5.948 1.834,-0.324 1.209,-6.775 z m -0.692,4.783 -1.039,-1.901 1.347,-0.237 z m 33.555,14.37 c 0.894,1.151 2.26,1.355 3.113,0.693 0.59,-0.458 0.871,-0.904 1.064,-1.829 l 0.58,-2.775 -1.071,-1.379 -0.565,2.604 -0.06,-0.078 c -0.795,-1.024 -1.992,-1.2 -2.887,-0.505 -0.932,0.723 -1.08,2.103 -0.174,3.269 z m 1.012,-0.809 c -0.265,-0.342 -0.334,-0.812 0.107,-1.154 0.462,-0.359 0.894,-0.17 1.159,0.171 0.264,0.341 0.346,0.813 -0.116,1.172 -0.441,0.342 -0.885,0.152 -1.15,-0.189 z m -49.171,-5.21 -2.622,-2.872 c -1.056,-1.156 -2.551,-1.339 -3.893,-0.113 -1.356,1.238 -1.303,2.737 -0.247,3.894 l 2.621,2.871 1.256,-1.147 -2.639,-2.891 c -0.455,-0.498 -0.604,-1.021 0.034,-1.604 0.632,-0.576 1.139,-0.381 1.594,0.117 l 2.64,2.891 z m 48.965,-2.376 c -0.998,-0.948 -2.338,-1.054 -3.176,-0.237 l 1.129,1.073 c 0.35,-0.251 0.74,-0.166 1.086,0.163 0.47,0.446 0.302,0.858 0.079,1.093 -0.229,0.241 -0.664,0.412 -1.154,-0.053 -0.313,-0.298 -0.43,-0.645 -0.261,-1.019 l -1.231,-0.573 -1.964,2.852 2.715,2.578 0.954,-1.005 -1.899,-1.803 0.448,-0.655 c 0.11,0.29 0.295,0.553 0.523,0.77 1.122,1.066 2.33,0.748 3.037,0.005 0.681,-0.718 0.908,-2.055 -0.286,-3.189 z m -60.323,4.873 -1.049,1.34 5.088,3.983 2.713,-3.465 -1.162,-0.91 -1.664,2.126 -0.943,-0.738 1.393,-1.778 -1.162,-0.91 -1.393,1.778 z m 12.243,-10.721 -0.096,4.782 -2.101,-3.441 -1.329,0.811 3.367,5.516 1.559,-0.952 0.09,-4.431 1.946,3.188 1.329,-0.811 -3.367,-5.516 z m 20.345,-5.272 -2.519,-0.043 -0.11,6.461 2.519,0.043 c 2.043,0.034 3.352,-1.257 3.384,-3.138 0.032,-1.881 -1.276,-3.289 -3.274,-3.323 z m -0.904,4.98 0.061,-3.528 0.719,0.013 c 1.125,0.019 1.673,0.613 1.653,1.828 -0.02,1.143 -0.606,1.718 -1.713,1.699 z"
       style="fill:#000000;fill-opacity:1;fill-rule:evenodd;stroke:none"
       transform="matrix(1.3333333,0,0,-1.3333333,0,1122.56)" />
  </g>
</svg>
